<?xml version="1.0" standalone="no"?>
<!DOCTYPE svg PUBLIC "-//W3C//DTD SVG 1.1//EN" "http://www.w3.org/Graphics/SVG/1.1/DTD/svg11.dtd" >
<svg xmlns="http://www.w3.org/2000/svg" xmlns:xlink="http://www.w3.org/1999/xlink" version="1.1">
<metadata></metadata>
<defs>
<font id="poker_in_octoberdemo" horiz-adv-x="1335" >
<font-face units-per-em="2048" ascent="1638" descent="-410" />
<missing-glyph horiz-adv-x="819" />
<glyph horiz-adv-x="0" />
<glyph horiz-adv-x="682" />
<glyph unicode=" "  horiz-adv-x="819" />
<glyph unicode="&#x09;" horiz-adv-x="819" />
<glyph unicode="&#xa0;" horiz-adv-x="819" />
<glyph unicode="0" horiz-adv-x="1212" d="M102 647q0 182 60 333t176.5 243t267.5 92t267.5 -92t176.5 -243t60 -333q0 -137 -35.5 -259t-99.5 -213t-159.5 -144.5t-209.5 -53.5t-209.5 53.5t-159.5 144.5t-99.5 213t-35.5 259zM451 647q0 -162 16.5 -290.5t52.5 -208.5t86 -80t86 80t53 209t17 290 q0 119 -10 222.5t-29 183.5t-49 126t-68 46q-50 0 -86 -80.5t-52.5 -208.5t-16.5 -289z" />
<glyph unicode="1" horiz-adv-x="733" d="M61 1044q205 67 461 271v-1073q0 -64 43.5 -108t106.5 -44l-21 -90h-565l-20 90q58 0 103.5 44.5t45.5 107.5v569q0 66 -33.5 106.5t-99.5 40.5z" />
<glyph unicode="2" horiz-adv-x="950" d="M61 975q0 146 100.5 243t278.5 97q189 0 299.5 -111.5t110.5 -285.5q0 -86 -39 -180t-97.5 -173.5t-135.5 -158t-144 -134t-133 -100.5l268 35q85 11 134.5 55.5t78.5 118.5h86l-57 -381h-684l-29 80q184 211 296 466.5t112 448.5q0 100 -41 165t-107 65 q-65 0 -109 -40.5t-44 -80.5q0 -20 12.5 -33.5t29.5 -23t34.5 -20.5t30 -33t12.5 -54q0 -47 -33.5 -81t-93.5 -34q-59 0 -97.5 43t-38.5 107z" />
<glyph unicode="3" horiz-adv-x="1030" d="M61 319q0 64 38.5 107t97.5 43q60 0 93.5 -34t33.5 -81q0 -32 -12.5 -54t-30 -33t-34.5 -20.5t-29.5 -23t-12.5 -33.5q0 -40 51.5 -80t128.5 -40q104 0 180 99.5t76 262.5q0 98 -48.5 174.5t-126.5 110t-163 14.5l-31 57l353 345l-211 -23q-157 -17 -170 -186h-84 l-35 391q159 -21 375 -23.5t327 2.5l27 -77l-430 -404q73 16 148.5 15t147 -30.5t127 -75t89 -119t33.5 -161.5q0 -196 -144.5 -329t-361.5 -133q-193 0 -297.5 96t-104.5 243z" />
<glyph unicode="4" horiz-adv-x="1026" d="M41 465q220 240 448 829h349q-103 -210 -291.5 -447t-362.5 -380h324v180l307 125v-305h148l-21 -90h-127v-135q0 -64 43.5 -108t106.5 -44l-21 -90h-565l-21 90q59 0 104.5 44.5t45.5 107.5v135h-428z" />
<glyph unicode="5" horiz-adv-x="1050" d="M61 319q0 64 38.5 107t97.5 43q60 0 93.5 -34t33.5 -81q0 -32 -12.5 -54t-30 -33t-34.5 -20.5t-29.5 -23t-12.5 -33.5q0 -40 51.5 -80t128.5 -40q123 0 200 105t77 274q0 133 -71.5 222t-197.5 89q-88 0 -182 -51l-47 57l78 549q192 -41 374 -41q193 3 256 53l50 -70 l-107 -253l-514 98l-47 -295q119 102 287 102q87 0 166 -28.5t142.5 -83t101.5 -142t38 -196.5q0 -128 -67.5 -237.5t-189 -175.5t-269.5 -66q-193 0 -297.5 96t-104.5 243z" />
<glyph unicode="6" horiz-adv-x="1089" d="M61 553q0 143 54.5 281t145 241.5t212.5 172t252 79.5l39 -57q-143 -69 -226.5 -199t-115.5 -336q92 86 237 86q157 0 263 -111t106 -270q0 -64 -18.5 -128t-58.5 -124t-95.5 -106t-135.5 -74t-173 -28q-211 0 -348.5 155.5t-137.5 417.5zM399 397q0 -87 16.5 -160.5 t51 -121t80.5 -47.5q65 0 109 96t44 231q0 57 -8 110t-25 101t-47.5 76.5t-70.5 28.5q-65 0 -107.5 -88t-42.5 -226z" />
<glyph unicode="7" horiz-adv-x="942" d="M61 924l50 391q197 -21 784 -21l27 -77q-93 -98 -162.5 -234.5t-106 -264t-58.5 -274.5t-28 -246t-6 -198h-348q0 264 145 568t375 565l-346 -25q-37 -2 -75.5 -13.5t-75.5 -32.5t-62 -57t-29 -81h-84z" />
<glyph unicode="8" horiz-adv-x="1077" d="M61 356q0 137 85 233t231 132q-101 34 -160 105t-59 159q0 148 106.5 239t276.5 91q167 0 273 -89.5t106 -234.5q0 -89 -60 -162t-160 -108q146 -36 231 -132t85 -233q0 -166 -133 -271t-344 -105t-344.5 105t-133.5 271zM389 356q0 -128 43 -210.5t107 -82.5 q65 0 107 82.5t42 210.5q0 138 -42 228t-107 90q-63 0 -106.5 -90.5t-43.5 -227.5zM444 1006q0 -101 27 -171.5t68 -70.5t67.5 70.5t26.5 171.5q0 103 -26 163t-68 60t-68.5 -60t-26.5 -163z" />
<glyph unicode="9" horiz-adv-x="1089" d="M61 866q0 64 19 128t58.5 124.5t95 106.5t136 74t173.5 28q103 0 191.5 -39.5t153.5 -112t102.5 -181.5t37.5 -240q0 -191 -92 -365t-245 -284t-326 -125l-39 57q143 69 226.5 198.5t115.5 335.5q-92 -86 -238 -86q-157 0 -263 111t-106 270zM389 911q0 -57 8 -110 t25 -100.5t48 -76t71 -28.5q65 0 107 87t42 226q0 87 -16.5 161t-50.5 121.5t-80 47.5q-65 0 -109.5 -96.5t-44.5 -231.5z" />
<glyph unicode="A" horiz-adv-x="1728" d="M82 98q68 6 129 60t86 131l303 973q8 25 8 48q0 44 -28 82q-43 58 -119 64l20 86h635l318 -1253q20 -80 80 -133.5t133 -57.5l-21 -98h-723l-20 98q74 6 116 64q30 41 30 90q0 20 -5 41l-287 1114l-348 -1112q-8 -27 -8 -51q0 -45 27 -83q42 -59 124 -63l-20 -98h-410z M569 555l144 190l145 -190l-145 -190z" />
<glyph unicode="B" horiz-adv-x="1570" d="M80 100q75 0 128.5 51.5t53.5 122.5v983q0 75 -54 137t-126 62l20 86h668q284 0 448 -96t164 -262q0 -98 -84 -191.5t-225 -130.5q191 -28 303.5 -141.5t112.5 -251.5q0 -40 -5.5 -79t-23 -87t-46 -89.5t-77.5 -81.5t-114 -68.5t-160 -46t-211 -17.5h-750zM659 88 q160 0 271.5 111.5t111.5 269.5q0 115 -70 199.5t-202 128.5v94q166 102 166 293q0 129 -72 196.5t-205 67.5v-1360z" />
<glyph unicode="C" horiz-adv-x="1394" d="M82 776q0 182 59.5 333t162.5 250t240.5 153.5t293.5 54.5q44 0 161 -24.5t172 -24.5q43 0 74 8l64 -459h-97q-46 208 -123 308t-192 100q-170 0 -269.5 -189t-99.5 -510q0 -324 98 -508t271 -184q103 0 194 52t154 147l68 -56q-94 -130 -219 -188.5t-310 -58.5 q-210 0 -369.5 98.5t-246 279.5t-86.5 418z" />
<glyph unicode="D" horiz-adv-x="1667" d="M82 1452l24 92h627q148 0 276.5 -29t234.5 -90.5t182 -151.5t117.5 -216.5t41.5 -280.5q0 -192 -63.5 -343t-172 -244t-245.5 -141t-293 -48h-702l-25 109q71 0 125.5 53t54.5 129v966q0 76 -57 135.5t-125 59.5zM682 109q225 0 330.5 169t105.5 498q0 165 -34.5 295 t-94.5 210.5t-138 122.5t-169 42v-1337z" />
<glyph unicode="E" horiz-adv-x="1531" d="M111 98q73 0 126.5 52.5t53.5 123.5v983q0 75 -54.5 137t-125.5 62l20 86h848q226 0 371 29l-95 -594h-90q1 19 1 37q0 215 -77 324q-83 118 -262 118h-139v-1358q112 0 215.5 35t193 104.5t153 185t85.5 263.5h86l-90 -719q-154 33 -500 33h-700zM766 776l145 191 l146 -191l-146 -201z" />
<glyph unicode="F" horiz-adv-x="1382" d="M82 98q72 0 126 57.5t54 129.5v972q0 75 -54.5 137t-125.5 62l20 86h848q226 0 371 29l-94 -594h-90q1 19 1 37q0 215 -77 324q-83 118 -262 118h-140v-1171q0 -72 54.5 -129.5t126.5 -57.5l-21 -98h-717zM737 776l146 191l145 -191l-145 -190z" />
<glyph unicode="G" horiz-adv-x="1572" d="M82 776q0 226 97.5 407.5t270.5 283.5t388 102q54 0 165 -25.5t171 -25.5q49 0 73 8l66 -459h-96q-91 412 -318 412q-167 0 -269 -189.5t-102 -513.5q0 -320 93.5 -505t255.5 -185q55 0 91 36t36 91v332q0 76 -60 133t-143 57l20 88h649l21 -88q-68 0 -110 -56.5 t-42 -133.5v-531q-53 13 -127 13q-54 -2 -195 -24.5t-229 -22.5q-321 0 -513.5 217t-192.5 579z" />
<glyph unicode="H" horiz-adv-x="1851" d="M82 86q71 0 124.5 59t53.5 134v987q0 76 -51 133t-127 57l20 86h711l21 -86q-74 0 -125.5 -56.5t-51.5 -133.5v-987q0 -79 51.5 -136t125.5 -57l-21 -88h-711zM782 776l144 191l145 -191l-145 -190zM1018 86q71 0 124.5 59t53.5 134v987q0 75 -51.5 132.5t-126.5 57.5 l20 86h711l20 -86q-78 0 -127 -55.5t-49 -134.5v-987q0 -79 51 -136t125 -57l-20 -88h-711z" />
<glyph unicode="I" horiz-adv-x="915" d="M82 86q71 0 124.5 59t53.5 134v987q0 75 -51.5 132.5t-126.5 57.5l20 86h711l21 -86q-78 0 -127.5 -55.5t-49.5 -134.5v-987q0 -79 51.5 -136t125.5 -57l-21 -88h-711z" />
<glyph unicode="J" horiz-adv-x="915" d="M82 -393q77 0 127.5 84t50.5 207v1368q0 75 -51.5 132.5t-126.5 57.5l20 86h711l21 -86q-78 0 -127.5 -55.5t-49.5 -134.5v-1084q0 -663 -555 -663z" />
<glyph unicode="K" horiz-adv-x="1769" d="M82 88q71 0 124.5 59t53.5 134v987q0 75 -51.5 132.5t-126.5 57.5l20 86h711l21 -86q-78 0 -127.5 -55.5t-49.5 -134.5v-336l361 328q88 82 88 135q0 28 -20.5 45.5t-53.5 17.5l21 86h483l20 -86q-182 0 -385 -182l-397 -361q106 -12 197.5 -43.5t157.5 -69t126 -97.5 t97 -109t77 -125.5t60 -123.5t51 -126q22 -57 35 -87.5t34.5 -76.5t40 -71.5t43 -53.5t53.5 -42.5t62 -20.5q-89 -45 -198 -45q-81 0 -151 18t-120.5 41.5t-100 73.5t-78 84.5t-67 106.5t-54.5 108t-51 118q-4 10 -6.5 15.5t-6 13.5t-6.5 15q-23 58 -34.5 86t-34 78.5 t-38.5 76.5t-41 62t-47.5 55t-53 35.5t-63.5 22.5v-553q0 -79 51.5 -136t125.5 -57l-21 -88h-711z" />
<glyph unicode="L" horiz-adv-x="1474" d="M82 92q72 0 126 57.5t54 129.5v987q0 75 -51.5 132.5t-126.5 57.5l20 86h711l21 -86q-78 0 -127.5 -55.5t-49.5 -134.5v-1174q89 0 173 21t162.5 67.5t141.5 114t108 166t63 217.5h86l-90 -709q-145 31 -500 31h-701z" />
<glyph unicode="M" horiz-adv-x="2238" d="M82 88q73 0 125.5 50.5t52.5 123.5v1004q0 101 -49 145.5t-129 44.5l20 86h625l414 -1397l383 1397h612l21 -86q-179 0 -179 -196v-998q0 -77 51 -125.5t128 -48.5l-21 -88h-711l-20 88q73 0 124.5 50t51.5 124v1161l-391 -1423h-422l-422 1430v-1168q0 -77 50.5 -125.5 t127.5 -48.5l-20 -88h-402z" />
<glyph unicode="N" horiz-adv-x="1691" d="M82 88q71 0 124.5 59t53.5 134v985q0 74 -53.5 132t-124.5 58l20 86h627l625 -1378v1100q0 77 -51.5 130.5t-126.5 53.5l20 94h393l21 -94q-72 0 -124 -55t-52 -129v-1264h-441l-647 1419v-1138q0 -79 51.5 -136t126.5 -57l-20 -88h-402z" />
<glyph unicode="O" horiz-adv-x="1601" d="M84 776q0 231 90.5 411t254 280t372.5 100t372.5 -100t254 -280t90.5 -411q0 -173 -53 -320.5t-147 -251t-227.5 -162t-289.5 -58.5t-289.5 58.5t-227.5 162t-147 251t-53 320.5zM530 776q0 -329 72 -517.5t199 -188.5t198.5 188t71.5 518t-71.5 517.5t-198.5 187.5 t-199 -188t-72 -517zM655 776l146 191l145 -191l-145 -190z" />
<glyph unicode="P" horiz-adv-x="1542" d="M82 1456l20 86h668q329 0 520 -123.5t191 -335.5q0 -98 -68 -188.5t-174 -153t-235.5 -100t-251.5 -39.5v92q126 53 204 160.5t78 230.5q0 179 -98 275t-277 96v-1175q0 -78 51 -133.5t126 -55.5l-21 -92h-711l-20 92q73 0 125.5 56.5t52.5 132.5v976q0 75 -54.5 137 t-125.5 62z" />
<glyph unicode="Q" horiz-adv-x="1601" d="M84 776q0 231 90.5 411t254 280t372.5 100t372.5 -100t254 -280t90.5 -411q0 -224 -85.5 -401t-239 -279t-351.5 -112q60 -4 120.5 -22.5t93 -35t91.5 -50.5q5 -3 8.5 -5t7.5 -4q62 -35 87.5 -48t77.5 -29.5t99 -16.5q43 0 95 12q-70 -242 -305 -242q-40 0 -80 10 t-66 20.5t-66.5 37.5t-56 39t-59.5 47q-46 37 -72 56t-69 44.5t-86.5 37t-90.5 11.5q-71 0 -159 -26q64 73 155 115.5t199 48.5q-303 14 -492.5 233t-189.5 559zM530 776q0 -329 72 -517.5t199 -188.5t198.5 188t71.5 518t-71.5 517.5t-198.5 187.5t-199 -188t-72 -517z M655 776l146 191l145 -191l-145 -190z" />
<glyph unicode="R" horiz-adv-x="1744" d="M82 1456l20 86h668q329 0 520 -110t191 -299q0 -128 -110 -234t-318 -170q139 -34 229 -96t152 -163.5t120 -274.5q60 -177 123.5 -253.5t149.5 -76.5q-88 -43 -197 -43q-92 0 -169.5 18t-134 46t-104 73.5t-78.5 89t-59 104t-43.5 106.5t-33.5 108q-16 56 -29 94.5 t-34 82.5t-44 70.5t-56 44t-73 17.5v92q116 48 189 148.5t73 218.5q0 157 -98 241q-95 81 -265 80h-12v-1175q0 -78 51 -133.5t126 -55.5l-21 -92h-711l-20 92q73 0 125.5 56.5t52.5 132.5v976q0 75 -54.5 137t-125.5 62z" />
<glyph unicode="S" horiz-adv-x="1347" d="M86 0l86 664h92q21 -104 56 -195t86 -167.5t121.5 -120.5t152.5 -44q67 0 106 44.5t39 121.5q0 51 -22.5 103t-67 106t-87.5 96.5t-107 98.5q-70 61 -106.5 94.5t-94 95t-87 108.5t-52.5 111t-23 127q0 152 108 237t302 85q94 0 240 -24.5t196 -24.5h15q104 0 194 38 l-84 -522h-74q-3 174 -102.5 291t-212.5 117q-68 0 -103.5 -36.5t-35.5 -105.5q0 -33 16 -70t36.5 -66.5t63 -73t70 -68.5t82.5 -74q65 -58 108 -98.5t98.5 -103.5t88.5 -116.5t56.5 -121t23.5 -133.5q0 -170 -139 -281.5t-351 -111.5q-58 0 -110.5 10.5t-98 31.5 t-72.5 36.5t-65 41.5q-80 54 -111 54q-88 0 -143 -154h-88z" />
<glyph unicode="T" horiz-adv-x="1595" d="M82 1036l55 533q114 -29 277 -29h766q160 0 278 29l55 -533h-86q-104 418 -419 418h-13v-1175q0 -79 51 -136t125 -57l-20 -88h-711l-20 88q71 0 124.5 59t53.5 134v1175h-10q-144 0 -254 -108q-114 -112 -166 -310h-86z" />
<glyph unicode="U" horiz-adv-x="1638" d="M82 1456l20 86h711l21 -86q-74 0 -125.5 -56.5t-51.5 -133.5v-779q0 -175 88.5 -284t229.5 -109q138 0 224.5 103t86.5 266v803q0 74 -53.5 132t-124.5 58l20 86h408l20 -86q-74 0 -126 -56.5t-52 -133.5v-803q0 -216 -130.5 -349.5t-342.5 -133.5q-329 0 -487 155 t-158 475v656q0 74 -53.5 132t-124.5 58z" />
<glyph unicode="V" horiz-adv-x="1650" d="M41 1448l20 94h725l21 -94q-77 0 -120 -50q-28 -32 -28 -80q0 -26 9 -56l301 -1123l329 1123q9 33 9 60q0 45 -25 76q-41 50 -123 50l21 94h409l21 -94q-68 0 -130 -52t-85 -130l-369 -1266h-428l-342 1266q-25 92 -82 137t-133 45z" />
<glyph unicode="W" horiz-adv-x="2592" d="M41 1448l20 94h723l21 -94q-73 0 -116 -49q-30 -35 -30 -80q0 -19 5 -39l276 -1120l268 1382h484l319 -1382l238 1102q5 22 5 41q0 50 -31 90q-43 55 -118 55l21 94h405l21 -94q-71 0 -134.5 -54.5t-78.5 -127.5l-271 -1266h-426l-350 1491l-293 -1491h-426l-317 1266 q-20 79 -81.5 130.5t-133.5 51.5z" />
<glyph unicode="X" horiz-adv-x="1746" d="M82 1456l20 86h752l20 -86q-45 0 -75.5 -28t-30.5 -70q0 -41 31 -98l168 -293l213 293q39 55 39 98q0 98 -103 98l21 86h379l20 -86q-50 0 -113.5 -49.5t-124.5 -134.5l-282 -393l346 -605q54 -95 138.5 -140.5t164.5 -45.5l-20 -88h-789l-20 88q45 0 70.5 23.5 t25.5 62.5q0 56 -35 113l-168 295l-221 -295q-43 -59 -43 -109q0 -39 26.5 -64.5t71.5 -25.5l-20 -88h-428l-21 88q70 0 149.5 52t141.5 134l293 396l-344 602q-46 80 -113 132t-139 52z" />
<glyph unicode="Y" horiz-adv-x="1581" d="M41 1448l20 94h711l21 -94q-71 0 -113.5 -34.5t-42.5 -88.5q0 -29 18 -63l269 -525l270 523q23 39 23 77q0 48 -35 79.5t-92 31.5l20 94h410l20 -94q-153 0 -250 -180l-323 -619v-368q0 -76 52.5 -134.5t125.5 -58.5l-21 -88h-710l-21 88q74 0 125 57t51 136v372 l-315 617q-88 178 -213 178z" />
<glyph unicode="Z" horiz-adv-x="1386" d="M63 1038l46 533q159 -29 372 -29h774l23 -94l-741 -1360h17q63 0 126 12q72 14 143 44.5t135 80t116 113t89 150.5t51 188h86l-90 -709q-70 14 -235 23.5t-338 9.5h-526l-23 96l741 1360h-243q-172 0 -286.5 -111t-145.5 -307h-91z" />
<glyph unicode="a" horiz-adv-x="1447" d="M61 90q56 0 108.5 44t72.5 108l254 813q6 20 6 38q0 37 -26 67q-39 44 -99 44l20 90h543l266 -1052q18 -66 68 -109t112 -43l-20 -90h-616l-21 90q59 0 97 46q27 32 26 72q0 16 -4 34l-230 907l-282 -907q-7 -21 -7 -41q0 -37 25 -66q38 -45 103 -45l-21 -90h-354z M467 463l131 172l131 -172l-131 -172z" />
<glyph unicode="b" horiz-adv-x="1314" d="M61 90q59 0 105.5 43.5t46.5 104.5v811q0 62 -47 108.5t-105 46.5l21 90h563q237 0 377.5 -81.5t140.5 -225.5q0 -78 -67 -152t-172 -116q88 -20 154.5 -60t103 -87t54 -93t17.5 -88q0 -49 -10 -95.5t-44.5 -102.5t-90.5 -96.5t-158 -68.5t-237 -28h-631zM561 90 q127 0 215 87t88 214q0 97 -59.5 164t-167.5 102v91q137 80 137 239q0 106 -57 158.5t-156 52.5v-1108z" />
<glyph unicode="c" horiz-adv-x="1169" d="M61 647q0 153 50.5 280t137.5 211.5t203.5 130.5t247.5 46q33 0 83 -10t89 -19q40 -8 90 -12q11 -1 22 -1q36 0 63 9l55 -401h-96q-37 167 -98.5 253.5t-157.5 86.5q-136 0 -217.5 -153.5t-81.5 -420.5q0 -269 80 -419t219 -150q84 0 159.5 44t128.5 126l70 -58 q-78 -109 -183.5 -161t-269.5 -52q-125 0 -233 44.5t-188.5 127.5t-126.5 211t-46 287z" />
<glyph unicode="d" horiz-adv-x="1376" d="M61 1204l21 90h522q155 0 283.5 -40.5t224.5 -119t149.5 -203t53.5 -284.5t-53 -286t-143.5 -203.5t-205 -117.5t-243.5 -40h-586l-21 90q59 0 104.5 44.5t45.5 107.5v807q0 62 -47 108.5t-105 46.5zM561 90q365 0 365 557q0 270 -103.5 413.5t-261.5 143.5v-1114z" />
<glyph unicode="e" horiz-adv-x="1234" d="M61 90q59 0 105.5 43.5t46.5 104.5v811q0 62 -47 108.5t-105 46.5l21 90h713q183 0 319 25l-82 -514h-90q1 20 1 38q0 68 -9 122q-11 69 -41 124.5t-86 85t-137 29.5h-109v-1114q92 0 176.5 29.5t157 88t123 154t67.5 218.5h89l-78 -609q-130 29 -424 29h-590zM625 647 l131 172l131 -172l-131 -172z" />
<glyph unicode="f" horiz-adv-x="1196" d="M61 90q59 0 105.5 43.5t46.5 104.5v811q0 62 -47 108.5t-105 46.5l21 90h733q184 0 320 25l-82 -514h-90q1 19 1 37q0 68 -10 123q-11 69 -40.5 124.5t-86 85t-137.5 29.5h-129v-966q0 -61 46.5 -104.5t105.5 -43.5l-21 -90h-610zM625 647l131 172l131 -172l-131 -172z " />
<glyph unicode="g" horiz-adv-x="1312" d="M61 647q0 144 48 268.5t132 212t202 137.5t253 50q53 0 176 -23q78 -15 135 -15q33 0 60 5l55 -401h-96q-35 160 -111.5 252t-175.5 92q-134 0 -211 -154.5t-77 -423.5q0 -271 69 -425t189 -154q54 0 85 40t31 95v252q0 63 -51.5 106t-118.5 43l21 90h555l20 -90 q-51 0 -90 -43t-39 -106v-455q-34 13 -88 13h-15q-64 -2 -111.5 -10t-120.5 -17t-132 -9q-185 0 -320.5 86t-204.5 237t-69 347z" />
<glyph unicode="h" horiz-adv-x="1568" d="M61 90q59 0 104.5 44.5t45.5 107.5v813q0 63 -45.5 106t-104.5 43l21 90h627l20 -90q-63 0 -106 -42.5t-43 -106.5v-813q0 -64 43 -108t106 -44l-20 -90h-627zM672 647l131 172l131 -172l-131 -172zM860 90q59 0 104.5 44.5t45.5 107.5v813q0 63 -45.5 106t-104.5 43 l21 90h626l21 -90q-63 0 -106.5 -42.5t-43.5 -106.5v-813q0 -64 43.5 -108t106.5 -44l-21 -90h-626z" />
<glyph unicode="i" horiz-adv-x="770" d="M61 90q59 0 104.5 44.5t45.5 107.5v813q0 63 -45.5 106t-104.5 43l21 90h606l21 -90q-63 0 -106.5 -42.5t-43.5 -106.5v-813q0 -64 43.5 -108t106.5 -44l-21 -90h-606z" />
<glyph unicode="j" horiz-adv-x="770" d="M61 -319q61 0 105.5 63t44.5 170v1141q0 63 -45.5 106t-104.5 43l21 90h606l21 -90q-63 0 -106.5 -42.5t-43.5 -106.5v-903q0 -562 -477 -562z" />
<glyph unicode="k" horiz-adv-x="1474" d="M61 90q59 0 104.5 44.5t45.5 107.5v813q0 63 -45.5 106t-104.5 43l21 90h606l21 -90q-63 0 -106.5 -42.5t-43.5 -106.5v-277l305 277q70 61 70 106q0 19 -15.5 31t-44.5 12l21 90h410l20 -90q-155 0 -324 -149l-317 -287q112 -15 204 -55t153.5 -94t110.5 -119.5 t81.5 -134.5t60 -137t52.5 -127.5t53 -105.5t67.5 -72.5t89.5 -26.5q-93 -54 -194 -54q-99 0 -178.5 27.5t-132.5 74t-95.5 107.5t-71 129t-54 136.5t-50.5 132t-54 113.5t-71 83.5t-96 40.5v-444q0 -64 43.5 -108t106.5 -44l-21 -90h-606z" />
<glyph unicode="l" horiz-adv-x="1214" d="M61 90q59 0 105.5 43.5t46.5 104.5v811q0 62 -47 108.5t-105 46.5l21 90h610l21 -90q-58 0 -105 -45.5t-47 -107.5v-961q92 0 177 30t157.5 88t123 154t66.5 218h89l-78 -609q-46 11 -166.5 20t-257.5 9h-590z" />
<glyph unicode="m" horiz-adv-x="1871" d="M61 90q59 0 104.5 44.5t45.5 107.5v813q0 63 -45.5 106t-104.5 43l21 90h534l336 -1132l314 1132h524l20 -90q-63 0 -106 -42.5t-43 -106.5v-813q0 -64 43 -108t106 -44l-20 -90h-606l-21 90q59 0 104.5 44.5t45.5 107.5v882l-312 -1124h-364l-336 1137v-895 q0 -64 43.5 -108t106.5 -44l-21 -90h-348z" />
<glyph unicode="n" horiz-adv-x="1417" d="M61 90q59 0 104.5 44.5t45.5 107.5v813q0 63 -45.5 106t-104.5 43l21 90h534l506 -1108v867q0 64 -43 107.5t-106 43.5l20 90h342l21 -90q-59 0 -104.5 -44t-45.5 -107v-1053h-381l-524 1145v-903q0 -64 43.5 -108t106.5 -44l-21 -90h-348z" />
<glyph unicode="o" d="M61 647q0 193 76 345t215 237.5t316 85.5t315.5 -85.5t214.5 -237.5t76 -345q0 -194 -76 -346.5t-214.5 -238t-315.5 -85.5t-316 85.5t-215 238t-76 346.5zM451 647q0 -271 58 -425t159 -154t159 154t58 425q0 270 -58 424t-159 154t-159 -154t-58 -424zM537 647l131 172 l131 -172l-131 -172z" />
<glyph unicode="p" horiz-adv-x="1286" d="M61 1204l21 90h563q274 0 437 -103.5t163 -287.5q0 -84 -56 -161.5t-143.5 -131t-194 -85t-206.5 -31.5v90q99 43 155 131.5t56 189.5q0 149 -79 224t-216 75v-962q0 -64 43.5 -108t106.5 -44l-21 -90h-606l-21 90q59 0 104.5 44.5t45.5 107.5v807q0 62 -47 108.5 t-105 46.5z" />
<glyph unicode="q" d="M61 647q0 193 76 345t215 237.5t316 85.5t315.5 -85.5t214.5 -237.5t76 -345q0 -194 -76 -346.5t-214.5 -238t-315.5 -85.5t-316 85.5t-215 238t-76 346.5zM238 -184q59 76 151.5 120t204.5 44q69 0 130.5 -18.5t107.5 -45t89 -52.5t91.5 -44.5t97.5 -18.5q40 0 90 15 q-56 -222 -266 -222q-65 0 -124 26t-105 63t-91 74t-101 63t-116 26t-159 -30zM451 647q0 -271 58 -425t159 -154t159 154t58 425q0 270 -58 424t-159 154t-159 -154t-58 -424zM537 647l131 172l131 -172l-131 -172z" />
<glyph unicode="r" horiz-adv-x="1495" d="M61 1204l21 90h563q273 0 436.5 -93t163.5 -257q0 -104 -90.5 -193t-230.5 -143q99 -30 170.5 -86t110 -121t66.5 -136t49 -136t47.5 -117.5t73 -84t115.5 -31.5q-85 -54 -194 -54q-107 0 -190.5 24.5t-135.5 65.5t-90 94.5t-60 113t-38.5 118.5t-32.5 112.5t-35.5 94.5 t-53.5 65.5t-81 24.5v90q99 40 155 123t56 178q0 128 -79 193t-216 65v-962q0 -64 43.5 -108t106.5 -44l-21 -90h-606l-21 90q59 0 104.5 44.5t45.5 107.5v807q0 62 -47 108.5t-105 46.5z" />
<glyph unicode="s" horiz-adv-x="1122" d="M61 0l76 575h90q17 -87 45.5 -163t70 -139t99.5 -99.5t125 -36.5q50 0 81.5 33.5t31.5 95.5q0 50 -30 102t-77.5 98.5t-105.5 96t-115.5 102.5t-105 108t-77.5 123.5t-30 139.5q0 51 17 97.5t55 88t109.5 66.5t168.5 25q84 0 203 -21.5t162 -21.5q99 0 180 43l-69 -461 h-78q0 147 -80.5 243.5t-173.5 96.5q-107 0 -107 -111q0 -43 29.5 -90.5t76.5 -93t104 -94.5t114.5 -103t104.5 -110.5t76.5 -125.5t29.5 -140q0 -147 -119.5 -241.5t-296.5 -94.5q-74 0 -141 22.5t-106 50t-76 50t-58 22.5q-37 0 -63.5 -34t-48.5 -99h-91z" />
<glyph unicode="t" d="M61 846l50 475q79 -27 237 -27h639q67 0 136.5 8t101.5 19l49 -475h-88q-83 358 -344 358v-962q0 -64 43 -108t106 -44l-20 -90h-606l-21 90q63 0 106.5 44t43.5 108v962q-110 0 -205.5 -88.5t-138.5 -269.5h-89z" />
<glyph unicode="u" horiz-adv-x="1372" d="M61 1204l21 90h606l21 -90q-63 0 -106.5 -42.5t-43.5 -106.5v-649q0 -144 71.5 -231t184.5 -87t184.5 81.5t71.5 215.5v670q0 63 -45 106t-104 43l20 90h348l21 -90q-63 0 -106.5 -42.5t-43.5 -106.5v-670q0 -177 -108.5 -292.5t-294.5 -115.5q-125 0 -221 27t-157 73.5 t-99.5 115t-54 145t-15.5 170.5v547q0 63 -45.5 106t-104.5 43z" />
<glyph unicode="v" horiz-adv-x="1388" d="M31 1204l20 90h619l20 -90q-60 0 -98 -45q-27 -31 -26 -70q0 -17 5 -36l246 -906l266 906q6 20 6 39q0 38 -25 68q-37 44 -101 44l20 90h354l21 -96h-10q-50 0 -98 -38q-52 -42 -72 -107l-310 -1053h-370l-287 1053q-17 65 -67.5 108t-112.5 43z" />
<glyph unicode="w" horiz-adv-x="2174" d="M31 1204l20 90h617l20 -90q-60 0 -96 -44q-26 -32 -25 -72q0 -17 4 -35l220 -871l217 1112h415l260 -1112l189 871q3 17 3 32q1 42 -25 75q-36 44 -99 44l21 90h352l20 -90q-58 0 -112.5 -44.5t-67.5 -106.5l-227 -1053h-369l-285 1214l-237 -1214h-369l-266 1053 q-17 65 -67.5 108t-112.5 43z" />
<glyph unicode="x" horiz-adv-x="1464" d="M61 1204l21 90h641l20 -90q-49 0 -71.5 -23t-19 -56t25.5 -70l131 -228l170 228q33 45 33 80q0 14 -5 26q-18 43 -83 43l20 90h330l20 -90q-45 0 -98.5 -42t-103.5 -107l-234 -312l289 -501q46 -80 117 -116t139 -36l-21 -90h-671l-21 90q64 0 78 43q4 12 3 25 q0 36 -28 84l-135 233l-178 -233q-32 -44 -32 -79q0 -15 6 -29q20 -44 79 -44l-20 -90h-371l-20 90q60 0 126.5 43t118.5 109l244 315l-287 498q-37 63 -98.5 106t-114.5 43z" />
<glyph unicode="y" horiz-adv-x="1331" d="M31 1204l20 90h606l21 -90q-62 0 -105 -46q-26 -27 -26 -59q0 -21 12 -44l217 -422l219 420q17 33 17 61q0 25 -14 46q-28 44 -93 44l21 90h354l20 -90q-56 0 -116 -43.5t-94 -107.5l-269 -514v-297q0 -63 45.5 -107.5t104.5 -44.5l-21 -90h-606l-20 90q63 0 106 44 t43 108v301l-262 512q-76 149 -180 149z" />
<glyph unicode="z" horiz-adv-x="1155" d="M41 854l41 465q136 -25 319 -25h652l20 -90l-612 -1114q70 0 140 18t137 57.5t121.5 95.5t93.5 138.5t53 180.5h88l-78 -609q-50 11 -192 20t-294 9h-446l-21 90l613 1114h-189q-139 0 -234.5 -91t-121.5 -259h-90z" />
<glyph unicode="&#x2000;" horiz-adv-x="785" />
<glyph unicode="&#x2001;" horiz-adv-x="1571" />
<glyph unicode="&#x2002;" horiz-adv-x="785" />
<glyph unicode="&#x2003;" horiz-adv-x="1571" />
<glyph unicode="&#x2004;" horiz-adv-x="523" />
<glyph unicode="&#x2005;" horiz-adv-x="392" />
<glyph unicode="&#x2006;" horiz-adv-x="261" />
<glyph unicode="&#x2007;" horiz-adv-x="261" />
<glyph unicode="&#x2008;" horiz-adv-x="196" />
<glyph unicode="&#x2009;" horiz-adv-x="314" />
<glyph unicode="&#x200a;" horiz-adv-x="87" />
<glyph unicode="&#x202f;" horiz-adv-x="314" />
<glyph unicode="&#x205f;" horiz-adv-x="392" />
<glyph unicode="&#x25fc;" horiz-adv-x="1290" d="M0 0v1290h1290v-1290h-1290z" />
</font>
</defs>
</svg>
